<?xml version="1.0" encoding="UTF-8" standalone="no"?>
<!DOCTYPE svg PUBLIC "-//W3C//DTD SVG 1.1//EN" "http://www.w3.org/Graphics/SVG/1.1/DTD/svg11.dtd">
<svg xmlns="http://www.w3.org/2000/svg" version="1.1" viewBox="0.00 0.00 1235.00 877.00">
<path fill="#f8ffe9" d="
  M 130.72 324.01
  C 142.54 220.49 201.31 126.04 295.28 77.54
  C 298.49 75.88 305.89 75.21 306.95 80.53
  C 307.70 84.30 304.82 86.84 302.07 89.08
  Q 281.56 105.72 263.95 128.97
  C 222.93 183.14 202.24 249.79 197.95 316.94
  C 197.34 326.54 196.67 343.69 197.78 358.81
  C 198.28 365.57 197.72 371.51 198.69 379.01
  Q 201.83 403.26 205.03 415.74
  C 208.23 428.27 210.99 440.98 215.60 452.83
  Q 218.30 459.78 222.70 470.82
  C 244.04 524.37 283.79 573.14 339.11 593.98
  Q 339.61 594.17 339.66 594.69
  C 339.96 597.39 340.55 599.86 340.80 602.60
  C 344.58 643.68 373.94 677.08 408.11 697.47
  A 0.17 0.17 0.0 0 1 407.98 697.79
  C 400.46 695.99 391.11 694.85 385.36 693.70
  C 257.58 668.15 162.98 563.65 136.28 438.24
  C 131.99 418.05 128.89 396.45 128.77 375.44
  C 128.71 362.93 128.23 350.07 129.33 337.67
  Q 129.94 330.83 130.72 324.01
  Z"
/>
<path fill="#f8ffe9" d="
  M 1100.98 397.75
  C 1087.11 540.82 985.60 668.92 840.75 694.47
  Q 832.43 695.94 824.23 697.59
  A 0.22 0.22 0.0 0 1 824.08 697.18
  C 853.92 679.40 878.39 652.95 888.11 619.10
  C 890.30 611.50 891.03 602.67 892.05 594.44
  Q 892.11 593.94 892.58 593.76
  C 925.89 580.88 953.77 558.28 974.70 530.19
  C 981.09 521.62 988.74 511.17 994.12 501.80
  C 1003.31 485.79 1010.50 468.39 1016.86 451.12
  C 1021.60 438.24 1024.72 424.31 1027.80 410.72
  C 1029.94 401.32 1031.31 391.23 1032.80 381.38
  C 1034.49 370.17 1033.91 358.11 1033.95 346.77
  C 1034.34 250.98 1002.49 149.89 926.42 86.81
  Q 922.39 83.47 924.50 78.98
  C 926.77 74.14 935.49 77.24 938.99 79.13
  Q 1015.04 120.48 1057.43 194.08
  Q 1094.65 258.72 1101.01 333.29
  Q 1101.72 341.60 1102.37 349.93
  C 1103.60 365.87 1102.51 381.91 1100.98 397.75
  Z"
/>
<path fill="#f8ffe9" d="
  M 321.69 219.20
  C 300.20 245.33 285.42 279.05 274.17 310.72
  C 258.00 356.27 246.42 403.16 239.95 451.09
  C 238.31 463.30 236.74 476.20 238.26 488.43
  Q 238.41 489.60 237.84 488.57
  C 231.16 476.40 226.23 463.34 221.32 450.39
  Q 218.09 441.87 215.68 432.29
  C 213.36 423.05 210.78 413.49 209.12 404.50
  Q 207.21 394.17 205.23 381.00
  C 203.80 371.52 204.26 362.32 203.80 352.98
  C 203.46 346.03 204.43 341.51 207.02 335.51
  C 226.87 289.52 259.55 239.58 303.32 214.59
  Q 312.53 209.33 315.73 208.73
  C 322.71 207.43 325.82 214.17 321.69 219.20
  Z"
/>
<path fill="#f8ffe9" d="
  M 957.81 237.19
  C 986.63 264.94 1008.35 299.46 1024.76 337.46
  C 1027.25 343.22 1028.40 346.77 1028.10 353.36
  C 1027.71 362.02 1028.04 370.89 1026.90 379.16
  Q 1023.64 403.00 1017.80 426.33
  C 1012.37 448.00 1003.91 469.32 994.05 489.16
  A 0.91 0.91 0.0 0 1 992.33 488.70
  Q 992.75 480.78 992.81 473.03
  Q 992.88 465.59 991.86 457.42
  Q 981.18 372.19 950.29 293.48
  Q 939.94 267.14 924.44 240.31
  C 921.46 235.14 916.75 228.49 912.06 223.01
  C 909.62 220.17 905.59 215.51 908.02 211.57
  C 910.37 207.77 914.11 207.99 917.95 209.75
  Q 939.58 219.63 957.81 237.19
  Z"
/>
<path fill="#f8ffe9" d="
  M 677.51 544.35
  Q 705.74 509.36 733.99 474.25
  C 737.20 470.26 741.11 462.58 747.42 467.34
  Q 764.42 480.17 773.86 501.36
  C 790.28 538.25 791.98 580.88 781.92 619.72
  C 781.50 621.33 781.22 622.56 779.74 623.56
  Q 772.71 628.36 764.50 630.71
  C 745.84 636.05 729.02 637.33 710.85 630.59
  Q 709.32 630.02 697.47 624.22
  C 687.52 619.35 677.18 615.41 665.97 615.01
  C 654.65 614.60 644.37 615.59 634.21 620.93
  C 626.87 624.79 620.88 628.42 616.72 634.24
  A 1.02 1.01 -47.4 0 1 615.12 634.31
  C 613.30 632.17 611.81 629.96 609.53 628.36
  Q 601.71 622.87 596.98 620.52
  C 585.31 614.73 573.94 614.64 561.06 615.33
  C 551.34 615.85 538.25 622.04 529.10 626.78
  Q 505.55 638.96 478.08 633.38
  Q 462.21 630.15 450.58 622.93
  Q 449.94 622.53 449.58 621.25
  C 436.36 573.35 440.39 502.13 482.71 468.01
  C 487.14 464.44 490.21 465.75 493.53 469.91
  Q 523.00 506.74 553.05 543.81
  A 1.63 1.63 0.0 0 0 554.77 544.35
  Q 566.26 541.05 578.69 539.47
  C 610.28 535.45 646.06 535.50 676.80 544.57
  A 0.69 0.68 27.4 0 0 677.51 544.35
  Z"
/>
<path fill="#f8ffe9" d="
  M 801.06 705.01
  C 807.53 713.75 828.21 715.20 837.73 714.32
  C 849.49 713.24 856.52 715.28 853.47 728.90
  C 849.91 744.83 839.75 756.82 827.40 766.93
  C 805.81 784.60 766.38 778.33 742.87 767.67
  C 661.32 730.68 569.41 730.64 487.95 767.75
  C 468.93 776.42 446.57 779.62 426.24 776.82
  C 412.43 774.92 402.92 767.67 393.33 757.53
  C 387.30 751.15 381.88 743.41 379.18 734.98
  C 376.83 727.61 372.71 716.94 384.14 714.22
  Q 386.10 713.76 388.77 714.07
  C 402.06 715.63 412.82 714.33 425.39 709.27
  C 427.22 708.54 428.31 707.28 429.89 706.09
  Q 430.28 705.80 430.41 705.34
  C 431.12 702.79 429.52 701.40 427.26 700.37
  C 394.08 685.33 363.65 658.42 351.59 623.35
  Q 349.01 615.83 347.20 603.88
  C 345.52 592.77 343.37 580.98 343.81 570.32
  C 345.27 535.04 363.26 503.71 393.08 484.99
  C 397.98 481.91 402.29 480.36 407.56 482.49
  A 1.82 1.81 23.5 0 1 408.53 484.93
  C 386.32 533.62 398.90 594.85 445.72 624.79
  C 462.89 635.76 479.14 642.26 499.86 640.63
  C 514.55 639.48 529.13 635.60 542.03 627.99
  C 556.60 619.40 575.16 619.42 590.56 624.90
  C 595.43 626.63 600.52 630.12 605.35 632.78
  C 609.12 634.87 612.01 637.92 615.49 640.51
  Q 615.82 640.76 616.17 640.52
  C 619.48 638.22 622.27 635.26 625.63 633.30
  C 631.89 629.65 638.24 625.54 644.98 623.63
  C 660.73 619.16 677.16 620.37 691.22 628.72
  C 701.97 635.11 713.44 638.15 725.99 640.06
  C 751.61 643.95 772.07 635.37 791.91 620.09
  C 833.48 588.08 843.64 531.76 822.49 485.05
  A 2.05 2.05 0.0 0 1 823.92 482.20
  C 827.89 481.34 831.70 481.21 835.39 483.46
  C 872.83 506.28 891.97 546.24 886.37 590.02
  C 885.42 597.40 884.63 605.80 883.25 612.29
  C 874.48 653.49 839.98 684.50 803.07 701.08
  Q 801.57 701.75 800.90 704.08
  Q 800.75 704.59 801.06 705.01
  Z"
/>
</svg>
