<svg width="72" height="80" viewBox="0 0 72 80" fill="none" xmlns="http://www.w3.org/2000/svg">
<g id="Bull hoof" clip-path="url(#clip0_1265_1495)">
<path id="Vector" d="M32.7014 0H33.3151C32.9853 4.42917 32.6408 8.85417 32.2818 13.275C31.1044 27.7417 31.4488 42.1687 33.3151 56.5562C33.8099 60.3812 36.221 78.225 31.0104 79.4875C26.9354 80.4792 22.5557 79.9812 17.8711 77.9938C4.00538 72.1188 1.72574 58.8813 0.980469 45.5375V39.6937C3.46052 25.0312 15.3285 11.0437 26.9709 2.65625C28.3613 1.65625 30.2714 0.770833 32.7014 0Z" fill="white"/>
<path id="Vector_2" d="M39.0432 0H39.4879C42.0723 0.795833 44.3081 1.9 46.1953 3.3125C57.7877 11.9875 71.4217 27.975 71.2965 43.2688C71.1775 57.525 68.6724 71.3125 54.8755 77.8063C51.9633 79.175 42.4251 81.45 39.895 78.4563C37.3899 75.5 37.7719 68.4688 38.0913 65C38.9305 56 40.302 46.5438 40.5087 37.975C40.7801 27 40.3292 15.6979 39.156 4.06875C39.1017 3.52292 39.0641 2.16667 39.0432 0Z" fill="white"/>
</g>
<defs>
<clipPath id="clip0_1265_1495">
<rect width="70.7692" height="80" fill="white" transform="translate(0.980469)"/>
</clipPath>
</defs>
</svg>
