<svg width="54" height="80" viewBox="0 0 54 80" fill="none" xmlns="http://www.w3.org/2000/svg">
<g id="Deer hoof" clip-path="url(#clip0_1265_1498)">
<path id="Vector" d="M0.75 47.5413V44.6054C2.56718 34.7983 4.83865 26.2106 7.56442 18.8423C10.42 11.1478 15.4016 5.13613 22.5094 0.807325C22.6354 0.731049 22.7761 0.682057 22.9223 0.663576C23.0684 0.645096 23.2166 0.657547 23.3571 0.700109C23.4976 0.74267 23.6273 0.814377 23.7376 0.910505C23.8479 1.00663 23.9362 1.125 23.9969 1.25781C24.6407 2.68694 25.0041 4.33613 25.0872 6.20538C25.6583 19.5801 25.5155 32.1031 24.6589 43.7743C24.1656 50.485 21.066 54.8526 15.3601 56.8772C8.14072 59.4481 2.33094 54.6947 0.75 47.5413Z" fill="white"/>
<path id="Vector_2" d="M37.3124 56.3343C33.0758 54.1957 30.6018 50.7498 29.8905 45.9964C28.2083 34.8042 28.6678 22.8663 28.7924 11.5498C28.8288 8.31872 29.1584 5.05918 29.7815 1.77115C29.8188 1.57668 29.9025 1.39401 30.0255 1.23856C30.1485 1.08311 30.3072 0.959429 30.4881 0.87795C30.6691 0.796472 30.867 0.759584 31.0653 0.770398C31.2635 0.781211 31.4562 0.839409 31.6272 0.940082C36.7517 3.97439 40.791 7.97439 43.7452 12.9401C45.2872 15.5343 46.9564 19.8501 48.7528 25.8877C50.7699 32.6605 54.9598 43.8838 52.5922 50.2372C50.2481 56.5362 43.5894 59.511 37.3124 56.3343Z" fill="white"/>
<path id="Vector_3" d="M23.2199 71.8371C23.843 77.4215 19.2715 81.3516 14.0146 77.5924C10.8839 75.3478 10.1129 72.1245 11.0864 68.6681C12.2468 64.5283 19.1936 67.2701 21.3898 68.8468C22.4749 69.6235 23.0849 70.6202 23.2199 71.8371Z" fill="white"/>
<path id="Vector_4" d="M34.2687 67.8836C36.9555 66.8506 41.7606 64.9089 43.0067 68.9788C43.988 72.2098 43.2014 74.9671 40.647 77.2506C38.1289 79.5082 35.6964 79.8396 33.3497 78.2448C31.4417 76.9477 31.1457 75.1691 30.7953 72.9943C30.3903 70.439 32.0569 68.7302 34.2687 67.8836Z" fill="white"/>
</g>
<defs>
<clipPath id="clip0_1265_1498">
<rect width="52.9577" height="80" fill="white" transform="translate(0.75)"/>
</clipPath>
</defs>
</svg>
