<svg width="100" height="80" viewBox="0 0 100 80" fill="none" xmlns="http://www.w3.org/2000/svg">
<g id="Wolf paw">
<path id="Vector" d="M38.3543 0H40.3547C43.1767 0.872316 44.9882 2.90847 45.7893 6.10847C47.2958 12.1198 47.5689 18.0814 46.6085 23.9932C45.8234 28.8407 43.8844 32.339 39.3033 34.0407C34.5788 35.7898 29.9431 31.8508 27.5672 28.2644C21.0471 18.4475 26.0447 2.66441 38.3543 0Z" fill="white"/>
<path id="Vector_2" d="M58.7909 0H61.0303C71.5307 3.32881 77.0608 14.5831 73.176 24.9695C71.3532 29.8373 65.5158 36.2509 59.774 33.939C55.4228 32.1898 52.9171 28.9605 52.2572 24.2508C51.2786 17.2452 51.7383 10.7593 53.6363 4.79322C54.4283 2.30282 56.1465 0.705085 58.7909 0Z" fill="white"/>
<path id="Vector_3" d="M8.73419 45.8644C5.37515 39.261 6.57676 29.3153 11.0486 23.3085C14.2711 18.9695 18.5041 22.4068 20.7639 25.4848C24.7602 30.9356 27.1816 36.7865 28.0282 43.0373C28.6904 47.9593 26.5398 53.7017 20.3338 53.1051C14.79 52.5763 10.9235 50.1627 8.73419 45.8644Z" fill="white"/>
<path id="Vector_4" d="M73.2261 51.3363C65.6409 43.377 81.0775 13.4583 88.0345 23.1736C93.3735 30.6448 94.9233 44.8549 86.1706 50.8007C82.8184 53.0719 76.4417 54.7126 73.2261 51.3363Z" fill="white"/>
<path id="Vector_5" d="M75.1775 69.6944C73.0246 75.6289 68.6734 78.8379 62.1237 79.3216C59.3996 79.5182 56.9759 78.5826 54.7092 78.3182C52.388 78.0402 50.1759 77.2063 47.8956 77.4978C46.4004 77.6944 45.151 77.8707 43.6217 78.3995C32.3157 82.2639 22.4092 74.63 23.249 62.786C23.6723 56.8266 28.7996 52.8538 32.7253 48.8944C38.4398 43.1317 39.5594 35.2741 49.0221 35.0097C59.8912 34.7114 61.5229 44.3588 68.0157 50.6639C69.859 52.4605 72.1189 54.3182 73.4639 56.2368C76.3632 60.3769 76.9344 64.8628 75.1775 69.6944Z" fill="white"/>
</g>
</svg>
